<svg xmlns="http://www.w3.org/2000/svg" width="142" height="34" fill="none" viewBox="0 0 200 48" role="img" aria-label="FreshBooks"><g><path fill="var(--customerLogoColor, #0075dd)" d="M35.429 5.8C27.447 5.8 21 12.213 21 20.153V39.8h19.75c7.982 0 14.429-6.413 14.429-14.353V5.8zm11.666 6.006c0 2.647-2.15 4.683-4.708 4.683h-5.116v4.072h6.856v4.682h-6.754v9.773h-5.628V10.585h5.526v4.377c.204-2.443 2.251-4.377 4.707-4.377h5.117z"></path><path fill="var(--customerLogoColor, #000)" d="M74.417 18.32v12.726h3.377v-6.923c0-.407 0-1.628.512-2.137.511-.611 1.228-.917 2.046-.815h.103v-3.155h-.103c-1.023-.102-1.944.305-2.353.712l-.205.204-.307.305v-.814zM108.187 31.147v-7.024c0-1.934.92-3.054 2.455-3.054q.921 0 1.535.61c.512.51.819 1.324.819 2.342v7.024h3.275v-7.94c0-2.748-1.945-4.988-4.503-5.192-1.433-.101-2.661.204-3.581 1.12v-4.988h-3.275v17h3.275zM126.606 21.782h-.102l.102-.102c1.331-.814 1.74-2.545 1.535-3.767-.511-2.443-2.456-3.868-5.526-3.868h-4.502v17h4.809c3.582 0 5.731-1.527 6.345-4.377.205-1.629-.819-4.174-2.661-4.886m-5.219-4.378h1.433c.614 0 1.842.102 1.944 1.426 0 .407-.102.814-.409 1.12-.512.508-1.33.61-2.047.61h-1.023zm3.991 9.671c-.511.51-1.432.815-2.865.815h-1.126v-4.072h1.842c1.126 0 2.456.509 2.559 1.832.102.509-.103 1.018-.41 1.425M141.24 19.95c-1.228-1.222-2.968-1.934-4.81-1.934-3.786.101-6.754 3.155-6.652 6.922.103 3.563 2.968 6.515 6.55 6.617h.102c1.74 0 3.479-.713 4.707-1.935 2.661-2.544 2.763-6.82.205-9.467.102-.101 0-.203-.102-.203m-4.605 8.449c-.921 0-1.842-.306-2.456-1.018-.717-.713-1.126-1.629-1.126-2.647 0-1.934 1.535-3.46 3.479-3.563h.103c1.944 0 3.479 1.527 3.581 3.461-.102 1.935-1.535 3.665-3.581 3.767M155.668 19.95c-1.228-1.222-2.967-1.934-4.809-1.934-3.787.101-6.754 3.155-6.652 6.922.103 3.563 2.968 6.515 6.549 6.617h.103a6.77 6.77 0 0 0 4.707-1.935c2.661-2.544 2.763-6.82.205-9.467 0-.101-.103-.203-.103-.203m-2.149 7.227a3.28 3.28 0 0 1-2.456 1.12c-.921 0-1.842-.305-2.456-1.018-.716-.712-1.125-1.629-1.125-2.647 0-1.934 1.535-3.46 3.479-3.562h.102c1.945 0 3.48 1.526 3.48 3.46-.103 1.12-.41 2.037-1.024 2.647M161.808 25.345l.205-.306h.307l3.684 6.108h3.581l-5.014-8.347 5.014-4.48h-4.502l-3.275 2.953v-7.228h-3.172v17.102h3.172z"></path><path fill="var(--customerLogoColor, #000)" d="M179 27.278c0-2.748-2.251-3.46-3.991-3.97-1.126-.305-2.047-.61-2.047-1.323 0-.51.41-.814 1.126-.814.409 0 .819.101 1.126.407l.102.102 2.149-2.138-.102-.102c-.819-.814-2.047-1.222-3.173-1.222-2.66 0-4.297 1.527-4.297 3.869 0 2.748 2.148 3.359 3.888 3.868 1.228.305 2.149.61 2.149 1.425 0 .713-.716 1.222-1.74 1.222-1.023 0-1.637-.51-1.637-1.324v-.203h-3.274v.203c0 2.443 2.046 4.276 4.911 4.276 2.763 0 4.81-1.833 4.81-4.276M67.05 17.506v3.665h5.627v3.257h-5.525v6.719h-3.377v-17h9.21v3.359zM93.963 24.836c0-4.174-2.354-6.719-6.14-6.719-3.889 0-6.652 2.749-6.652 6.515 0 3.97 2.865 6.922 6.55 6.922 1.944 0 3.888-.814 5.218-2.24l.103-.101-2.354-2.036-.103.102c-.716.916-1.841 1.425-2.967 1.425-1.74 0-3.07-1.12-3.377-2.952v-.306h9.62zm-9.415-2.24.102-.204c.614-1.017 1.638-1.526 2.968-1.526 1.433 0 2.558.61 2.865 1.73zM100.102 23.309c-1.125-.306-2.046-.611-2.046-1.425 0-.51.409-.815 1.125-.815.41 0 .819.102 1.126.407l.102.102 2.149-2.138-.102-.101c-.819-.815-2.047-1.222-3.172-1.222-2.661 0-4.298 1.527-4.298 3.868 0 2.749 2.149 3.36 3.888 3.869 1.228.305 2.149.61 2.149 1.425 0 .712-.716 1.221-1.74 1.221-1.023 0-1.637-.509-1.637-1.323v-.204h-3.274v.204c0 2.443 2.046 4.275 4.912 4.275s4.912-1.832 4.912-4.275c-.103-2.647-2.354-3.258-4.094-3.868"></path></g></svg>