<svg xmlns="http://www.w3.org/2000/svg" width="142" height="34" fill="none" viewBox="0 0 200 48" role="img" aria-label="JaneSoftware"><g><path fill="var(--customerLogoColor, #00c1ca)" d="M120.234.015c.042-.004 4.414-.376 5.511 2.838.245.726.333 1.62.177 2.749l-2.839 19.02c-.69.28-1.481.894-1.915 1.117-1.091.548-2.293 1.185-3.529 1.34-.568.068-2.225.057-1.881-1.004.015-.01 1.805-1.277 2.326-1.922 3.719-4.604.869-6.806-1.213-5.096-1.191.972-2.248 2.134-2.805 3.53-.356.928-.457 1.912-.78 2.84-.222.636-2.225.96-2.849.849-1.67-.302 1.458-4.203-.846-4.571-.769-.112-1.738.905-2.25 1.352-1.024.883-2.015 1.789-3.028 2.672-.011-1.274.747-2.672 1.114-3.879.145-.469.433-1.24.2-1.72-.579-1.15-1.758.2-2.093.614-1.369 1.676-1.837 3.119-3.674 4.348-2.36 1.575-2.026-1.03-1.236-2.035.78-.995.534-3.084-.868-1.676-1.214 1.218-2.116 2.671-3.463 3.755-.713.581-2.738 1.72-2.805.056-.067-1.833 2.46-4.392 4.198-4.75.612-.122 1.736.425 2.07-.335.434-.983-.969-1.42-1.67-1.319-3.006.425-5.89 3.52-6.535 6.951-.868 4.671 4.976 1.654 6.501.235 1.303 3.028 4.643.29 6.135-.961-.1 1.162-1.291 4.38 1.191 3.722 1.214-.325 3.919-5.085 4.331-3.309.178.738.468 1.532.991 2.102 1.314 1.418 3.506.078 4.753-.75.957 2.37 3.163 2.202 5.234 1.454.59-.213 2.782-1.04 4.151-2l-1.603 10.727c-.006.042-.945 6.153-7.392 4.862l-32.452-6.482s-2.228-.447-4.053-2.068c-1.136-1.017-2.126-2.48-2.315-4.593.044.447.122.861.222 1.252l.233.168c2.25 1.52 5.378 2.179 8.05 1.676 4.008-.76 4.865-5.04 5.611-8.348 1.492-6.649 1.258-13.655.234-20.405a.6.6 0 0 0-.09-.258z"></path><path fill="var(--customerLogoColor, #00c1ca)" d="M87.413 2.931c-.634.414-1.303 1.13-1.815 2.146-.89 1.788.891 4.101 1.225 5.822.523 2.682.601 5.476.468 8.192a36 36 0 0 1-.735 5.698c-.3 1.409-.768 3.833-1.937 4.84-1.526 1.295-4.554.804-5.823-.448-.735-.715-.88-2.101-.668-3.084.1-.447.501-1.151.056-1.564-.59-.537-1.826-.325-2.45-.023a4.3 4.3 0 0 0-.7.413L75 27.852l.2-17.623s.068-6.225 6.658-6.807l6.8-.603zM75 28.177c.011.066.01.144.01.211-.01-.067-.01-.145-.01-.212M118.34 20.174c.434 1.196-1.636 3.71-3.294 4.503-.078-1.765 1.313-4.57 3.294-4.503"></path></g></svg>