<svg xmlns="http://www.w3.org/2000/svg" width="142" height="34" fill="none" viewBox="0 0 200 48" role="img" aria-label="MetLife"><g transform="translate(0, -0.6)"><path fill="var(--customerLogoColor, #000)" d="M152.337 24.06q0-.4.169-.815.168-.414.493-.761t.817-.575a2.7 2.7 0 0 1 1.141-.227q.648 0 1.115.227.468.227.778.575.312.347.467.761t.156.815zm6.874 3.795q-.416.321-1.323.762-.908.44-2.361.44-1.478 0-2.321-.761-.843-.762-.869-1.777H161v-.641q0-1.578-.389-2.9-.389-1.324-1.154-2.272a5.4 5.4 0 0 0-1.88-1.483q-1.115-.534-2.594-.534-1.477 0-2.646.547a6 6 0 0 0-1.971 1.457 6.4 6.4 0 0 0-1.232 2.125 7.6 7.6 0 0 0-.428 2.525q0 1.496.454 2.739a5.8 5.8 0 0 0 1.323 2.125 6.1 6.1 0 0 0 2.114 1.376q1.245.495 2.801.495 1.167 0 2.075-.228a9.7 9.7 0 0 0 1.569-.52q.662-.294 1.076-.602t.623-.44zm-41.339.454a5 5 0 0 1-.778.468q-.415.2-.985.2-.752 0-1.103-.494-.35-.495-.35-1.403v-4.944h3.139v-3.02h-3.139v-3.358h-3.735v3.358h-1.925v3.02h1.925v4.73q0 1.177.234 2.139.233.961.778 1.643.544.68 1.426 1.069.882.387 2.179.387 2.075 0 3.839-1.443zm32.334-13.656a4.85 4.85 0 0 0-1.842-1.015 7.1 7.1 0 0 0-1.997-.294q-.934 0-1.828.307a4.6 4.6 0 0 0-1.595.936q-.7.627-1.129 1.59-.428.96-.428 2.298v.641h-1.971v3.02h1.971v9.514h3.709v-9.514h2.879v-3.02h-2.879v-.695q0-.935.467-1.442.466-.508 1.245-.508.492 0 .96.16.466.161.856.454zM133.791 31.65h3.735V19.116h-3.735zm-13.017 0h11.38v-3.3h-7.463V13.825h-3.917zm-21.335-7.59q0-.4.17-.815.168-.414.492-.761t.817-.575a2.7 2.7 0 0 1 1.141-.227q.648 0 1.116.227.466.227.778.575.311.347.466.761t.156.815zm6.874 3.795q-.416.321-1.323.762-.909.44-2.36.44-1.48 0-2.321-.761-.843-.762-.87-1.777h8.663v-.641q0-1.578-.389-2.9-.389-1.324-1.154-2.272a5.4 5.4 0 0 0-1.88-1.483q-1.116-.534-2.594-.534t-2.645.547a6 6 0 0 0-1.971 1.457 6.3 6.3 0 0 0-1.232 2.125 7.6 7.6 0 0 0-.428 2.525q-.001 1.496.454 2.739a5.8 5.8 0 0 0 1.322 2.125 6.1 6.1 0 0 0 2.114 1.376q1.245.495 2.801.495 1.167 0 2.075-.228a9.7 9.7 0 0 0 1.569-.52 5.7 5.7 0 0 0 1.077-.602q.414-.308.622-.44zM76.252 31.65h3.734l.441-11.571 3.787 6.868h2.023l3.58-6.949.492 11.652h3.916l-.803-17.825h-3.735l-4.41 8.365-4.512-8.365h-3.709zm59.407-13.967c-1.154 0-2.106-.981-2.106-2.17 0-1.188.952-2.17 2.106-2.17 1.182 0 2.105.952 2.105 2.17 0 1.189-.952 2.17-2.105 2.17"></path><path fill="var(--customerLogoColor, #a4ce4e)" d="M53.228 17.75c2.938 4.007 4.681 9 4.681 14.413 0 1.306-.103 2.588-.298 3.837h8.505c.74 0 1.34-.62 1.34-1.383v-24.23c0-.903-.826-1.571-1.671-1.341-5.08 1.381-9.476 4.5-12.557 8.703"></path><path fill="var(--customerLogoColor, #0090da)" d="M48.845 36a25 25 0 0 1-.298-3.837c0-5.414 1.743-10.406 4.68-14.414-3.08-4.203-7.477-7.322-12.556-8.703-.846-.23-1.671.438-1.671 1.34v24.23c0 .765.6 1.384 1.34 1.384z"></path><path fill="var(--customerLogoColorAltShadeLighter, #0061a0)" d="M53.228 17.75c-2.938 4.007-4.681 9-4.681 14.413 0 1.306.103 2.588.298 3.837h8.766c.195-1.25.298-2.53.298-3.837 0-5.414-1.743-10.406-4.681-14.414"></path></g></svg>