<svg xmlns="http://www.w3.org/2000/svg" width="142" height="34" fill="none" viewBox="0 0 200 48" role="img" aria-label="OnePassword"><g><path fill="var(--customerLogoColor, #051627)" fill-rule="evenodd" d="M91.782 16.8c1.64 0 3.246.3 4.213.57l.083.024.078-.4h6.686v2.226l-1.48.161 2.115 7.538h.185l2.352-9.577h3.991l2.273 9.578h.159l1.982-7.539-1.507-.16.344-2.227h5.55v1.501q-.18.361-.334.737l-.617.122c-.356.052-.516.178-.622.498l-.013.039-3.25 11.08h-4.176l-2.062-8.988h-.159l-2.088 8.987h-4.757l-3.33-11.106c-.102-.308-.227-.37-.516-.446l-.04-.01-.232-.05.015.06v2.034l-2.816-.187-.264-1.39c-.026-.214-.079-.321-.262-.375l-.084-.024a6.4 6.4 0 0 0-1.6-.19c-1.317 0-2.054.508-2.054 1.364 0 .935 1.053 1.247 2.36 1.551l.88.204.123.03c1.995.487 4.112 1.31 4.112 4.283 0 3.262-2.606 4.599-5.948 4.599-2.332 0-4.613-.609-5.17-.937l-.041-.026v-3.876l2.816.214.263 1.523.008.066c.03.195.094.287.308.335l.062.02.07.021.079.022.09.022c.38.091.97.183 1.726.183 1.394 0 2.183-.401 2.183-1.39 0-1.052-1.018-1.38-2.328-1.62l-.6-.109-.255-.05c-2.053-.405-4.317-1.14-4.317-4.236 0-3.315 2.79-4.679 5.816-4.679m-24.27 0c3.938 0 5.542 1.075 5.574 4.728v6.646l.001.072.003.064.004.058c.02.2.092.252.34.292l.071.01 1.065.181v-2.373l2.8.214.263 1.523c.025.24.078.348.314.401l.061.02.07.021.078.022.09.022c.378.091.965.183 1.716.183 1.387 0 2.172-.401 2.172-1.39 0-1.017-.946-1.357-2.187-1.595l-.733-.136-.254-.049-.184-.037-.179-.038c-1.934-.426-3.922-1.25-3.922-4.16 0-3.315 2.774-4.679 5.784-4.679 1.998 0 3.948.45 4.738.745l.078.03v3.877l-2.8-.187-.262-1.39c-.026-.214-.079-.321-.261-.375-.34-.107-.969-.213-1.676-.213-1.308 0-2.042.507-2.042 1.363 0 .95 1.084 1.258 2.414 1.567l.623.144c2.067.48 4.397 1.23 4.397 4.357 0 3.262-2.591 4.599-5.915 4.599-2.118 0-4.19-.507-4.955-.845l-.036-.017v.54h-4.817l-.262-1.443-.13-.027c-.995.99-2.303 1.792-4.398 1.792-3.297 0-3.821-2.3-3.821-3.957 0-2.647 1.59-3.878 4.797-4.11l3.108-.22v-1.523l-.002-.151-.002-.1-.005-.146-.005-.095c-.06-.953-.364-1.568-1.74-1.568l-.16.001-.104.003c-1.067.03-1.63.291-1.646 1.72v.067l-3.692-.321c0-3.573 3.156-4.106 5.556-4.117zm94.835-6 .001 17.323.002.062c.012.232.073.288.339.33l1.311.197v2.093h-4.805l-.258-1.484-.181-.026c-1.085 1.086-2.351 1.828-4.237 1.828-3.048 0-5.011-1.987-5.011-7.048 0-5.326 2.609-7.34 5.476-7.34 1.463 0 2.605.505 3.572 1.22l.071.052V13.98c0-.251-.093-.431-.301-.517l-.035-.013-1.421-.504.284-2.146zm-15.027 5.807c.591 0 1.753.1 2.262.229l.05.013v4.91l-3.189-.108-.266-1.43c-.053-.243-.133-.297-.345-.297-.65 0-1.418.526-1.839.88l-.075.064.001 7.195c.002.378.038.462.389.49l2.667.218v2.158h-8.69v-2.184l1.195-.162c.361-.052.422-.13.426-.502v-7.94c0-.284-.073-.47-.311-.556l-.035-.011-1.42-.508-.012-.027.29-2.163h4.677l.319 2.158h.159c.877-1.375 2.046-2.427 3.747-2.427m-91.869-5.033c4.885 0 6.363 2.62 6.363 5.695 0 4.605-2.717 6.485-7.1 6.522h-2.061v4.354l.002.067.003.063c.017.223.085.277.348.319l.07.01 3.775.213v2.112H46.502v-.006l-.012.006h-9.184v-2.102l2.25-.187c.343-.025.41-.119.418-.456l.001-.076v-9.192c0-.381-.282-.318-2.25.358L37 17.091l4.495-2.614h2.43l.001 13.67v.072l.003.064c.014.264.08.33.38.354l.036.003 2.145.187.012.005v-.015l1.663-.187c.345-.05.414-.123.422-.458V14.435c0-.388-.05-.5-.386-.532l-.036-.003-1.663-.187v-2.139zm13.714 13.534-1.78.133c-1.543.106-2.093.503-2.093 1.563s.628 1.457 1.492 1.457c.862 0 1.725-.473 2.325-.912l.056-.041zm86.962-5.297c-1.896 0-2.651 1.802-2.667 4.14v.076c0 2.588.725 4.028 2.356 4.028.855 0 1.784-.503 2.477-1.095l.061-.052v-6.297c-.648-.453-1.476-.8-2.227-.8M54.142 14.51h-1.544v6.385h1.36l.104-.001.152-.003.098-.004.145-.008c1.558-.097 3.087-.697 3.087-3.375 0-2.544-1.544-2.994-3.401-2.994" clip-rule="evenodd"></path><path fill="var(--customerLogoColor, #fff)" fill-rule="evenodd" d="M117.664 23.574c0 5.986 4.781 10.839 10.678 10.839s10.679-4.853 10.679-10.839-4.781-10.839-10.679-10.839c-5.897 0-10.678 4.853-10.678 10.839" clip-rule="evenodd"></path><path fill="var(--customerLogoColorAlt, #1a8cff)" fill-rule="evenodd" d="M128.343 15.06c4.634 0 8.39 3.812 8.39 8.515s-3.756 8.517-8.39 8.517-8.39-3.813-8.39-8.517 3.756-8.516 8.39-8.516" clip-rule="evenodd"></path><path fill="var(--customerLogoColor, gray)" d="M117.282 23.574c0 6.2 4.952 11.226 11.06 11.226s11.06-5.026 11.06-11.226-4.951-11.226-11.06-11.226c-6.108 0-11.06 5.026-11.06 11.226m.382 0c0-5.986 4.781-10.839 10.678-10.839s10.679 4.853 10.679 10.839-4.781 10.839-10.679 10.839c-5.897 0-10.678-4.853-10.678-10.839"></path><path fill="var(--customerLogoColor, #000)" fill-opacity=".052" fill-rule="evenodd" d="M139.006 22.993q.015.288.015.581c0 5.986-4.781 10.839-10.679 10.839-5.897 0-10.678-4.853-10.678-10.839q0-.293.015-.58c.297 5.715 4.958 10.257 10.663 10.257 5.662 0 10.295-4.472 10.656-10.126zm-10.664-9.097c5.161 0 9.344 4.246 9.344 9.484a9.52 9.52 0 0 1-3.362 7.287 8.94 8.94 0 0 0 2.79-6.513c0-4.917-3.927-8.903-8.772-8.903-4.844 0-8.771 3.986-8.771 8.903a8.94 8.94 0 0 0 2.79 6.513 9.52 9.52 0 0 1-3.362-7.287c0-5.238 4.183-9.484 9.343-9.484" clip-rule="evenodd"></path><path fill="var(--customerLogoColor, #1368be)" d="M128.343 15.06c4.634 0 8.39 3.812 8.39 8.515s-3.756 8.517-8.39 8.517c-4.588 0-8.316-3.738-8.39-8.376v-.14c0-4.704 3.756-8.517 8.39-8.517m-.001.386c-4.423 0-8.009 3.64-8.009 8.13s3.586 8.128 8.009 8.128 8.009-3.639 8.009-8.129-3.586-8.129-8.009-8.129"></path><path fill="var(--customerLogoColor, #000)" fill-opacity=".25" d="M128.384 16.799c-3.728 0-6.716 3.033-6.716 6.817 0 3.712 3.002 6.731 6.716 6.731 3.644 0 6.632-3.033 6.632-6.731 0-3.77-2.974-6.817-6.632-6.817m0 .387c3.433 0 6.251 2.86 6.251 6.43 0 3.485-2.818 6.344-6.251 6.344-3.518 0-6.335-2.86-6.335-6.344 0-3.57 2.817-6.43 6.335-6.43"></path><path fill="var(--customerLogoColor, #f7f7f7)" fill-rule="evenodd" d="M128.384 17.186c3.433 0 6.251 2.86 6.251 6.43 0 3.485-2.818 6.344-6.251 6.344-3.518 0-6.335-2.86-6.335-6.344 0-3.57 2.817-6.43 6.335-6.43" clip-rule="evenodd"></path><path fill="var(--customerLogoColor, #000)" fill-opacity=".05" fill-rule="evenodd" d="M131.203 23.574c0 1.603-1.281 2.903-2.86 2.903-1.58 0-2.861-1.3-2.861-2.903s1.281-2.903 2.861-2.903c1.579 0 2.86 1.3 2.86 2.903" clip-rule="evenodd"></path><path fill="var(--customerLogoColor, #fff)" d="M128.342 20.284c-1.79 0-3.241 1.473-3.241 3.29s1.451 3.29 3.241 3.29 3.242-1.473 3.242-3.29-1.451-3.29-3.242-3.29m.001.387c1.579 0 2.86 1.3 2.86 2.903s-1.281 2.903-2.86 2.903c-1.58 0-2.861-1.3-2.861-2.903s1.281-2.903 2.861-2.903"></path><path fill="var(--customerLogoColor, #000)" fill-opacity=".15" d="M128.343 20.67c1.579 0 2.86 1.3 2.86 2.904s-1.281 2.903-2.86 2.903c-1.58 0-2.861-1.3-2.861-2.903s1.281-2.903 2.861-2.903m0 .388c-1.37 0-2.479 1.127-2.479 2.516s1.109 2.516 2.479 2.516c1.369 0 2.479-1.126 2.479-2.516s-1.11-2.516-2.479-2.516"></path><path fill="var(--customerLogoColor, #fff)" d="M129.405 18.542h-2.127c-.472 0-.844.42-.844.924v2.089c0 .19.068.373.19.511l.313.352c.007.008.007.031 0 .04l-.313.352a.77.77 0 0 0-.19.51v4.363c0 .505.372.924.844.924h2.127c.471 0 .843-.419.843-.924v-2.088a.77.77 0 0 0-.19-.512l-.312-.352c-.008-.008-.008-.031 0-.04l.312-.351a.77.77 0 0 0 .19-.512v-4.362c0-.505-.372-.924-.843-.924m-.025.395c.269 0 .487.25.487.559v4.33a.4.4 0 0 1-.095.264l-.304.35a.41.41 0 0 0 0 .527l.304.35c.061.07.095.165.095.263v2.073c0 .31-.218.56-.487.56h-2.078c-.269 0-.486-.25-.486-.56v-4.33c0-.1.034-.194.095-.264l.304-.35a.415.415 0 0 0 0-.527l-.304-.35a.4.4 0 0 1-.095-.263v-2.073c0-.309.217-.56.486-.56z"></path><path fill="var(--customerLogoColorAlt, #0a2d4d)" fill-rule="evenodd" d="M126.816 21.566V19.49c0-.31.218-.56.486-.56h2.079c.268 0 .486.25.486.56v4.337a.4.4 0 0 1-.095.263l-.304.351a.414.414 0 0 0 0 .528l.304.35c.061.07.095.165.095.264v2.077c0 .309-.218.56-.486.56h-2.079c-.268 0-.486-.251-.486-.56v-4.337c0-.1.034-.194.095-.264l.304-.351a.416.416 0 0 0 0-.528l-.304-.35a.4.4 0 0 1-.095-.264" clip-rule="evenodd"></path><path fill="var(--customerLogoColor, #000)" fill-opacity=".4" d="M129.381 18.93c.268 0 .486.25.486.56v4.337a.4.4 0 0 1-.095.263l-.304.351a.414.414 0 0 0 0 .528l.304.35c.061.07.095.165.095.264v2.077c0 .309-.218.56-.486.56h-2.079c-.268 0-.486-.251-.486-.56v-4.337c0-.1.034-.194.095-.264l.304-.351a.416.416 0 0 0 0-.528l-.304-.35a.4.4 0 0 1-.095-.264V19.49c0-.31.218-.56.486-.56zm-.055.397-1.969-.003c-.077 0-.149.074-.159.178l-.001.022v2.058q0 .009.003.015l.003.005.318.347a.755.755 0 0 1 .026.979l-.026.03-.318.347-.005.01-.001.01v4.3c0 .108.067.188.144.199h.016l1.969.003c.077 0 .149-.073.158-.177l.001-.023V25.57l-.002-.015-.003-.005-.319-.347a.756.756 0 0 1-.025-.98l.025-.029.319-.347.005-.011v-4.309c0-.108-.067-.189-.143-.199z"></path></g></svg>